<?xml version="1.0" encoding="UTF-8" standalone="no"?>
<!DOCTYPE svg PUBLIC "-//W3C//DTD SVG 1.1//EN" "http://www.w3.org/Graphics/SVG/1.1/DTD/svg11.dtd">
<svg width="100%" height="100%" viewBox="0 0 702 702" version="1.1" xmlns="http://www.w3.org/2000/svg" xmlns:xlink="http://www.w3.org/1999/xlink" xml:space="preserve" xmlns:serif="http://www.serif.com/" style="fill-rule:evenodd;clip-rule:evenodd;stroke-linejoin:round;stroke-miterlimit:2;">
    <rect x="0" y="0" width="702" height="702" style="fill:white;"/>
    <g transform="matrix(3.88849,0,0,3.88849,351,351)">
        <g transform="matrix(1,0,0,1,-90.2665,-19.3105)">
            <g transform="matrix(1,0,0,1,0.167,0.061)">
                <g transform="matrix(1,0,0,1,48.32,13.952)">
                    <g transform="matrix(1,0,0,1,-72.2,-20.7)">
                        <path d="M72.2,41.8L73.6,37.261C75.59,39.106 78.167,40.193 80.877,40.332C82.746,40.332 84.215,39.598 84.215,37.995C84.215,36.46 83.215,35.859 79.876,35.124C74.6,33.851 72.8,31.047 72.8,27.643C72.8,23.437 76.138,20.7 81.278,20.7C83.991,20.699 86.643,21.514 88.888,23.037L87.62,27.176C85.696,25.958 83.486,25.268 81.211,25.176C79.542,25.176 78.541,25.844 78.541,27.045C78.541,28.113 79.209,28.781 81.879,29.382C87.687,30.717 90.023,33.187 90.023,37.326C90.023,42.8 85.617,44.803 80.944,44.803C77.764,44.888 74.657,43.821 72.2,41.8Z" style="fill:rgb(0,123,198);fill-rule:nonzero;"/>
                    </g>
                    <g transform="matrix(1,0,0,1,-82.04,-20.966)">
                        <path d="M101.8,21.5L108.142,21.5L108.142,31.046L116.754,21.5L123.43,21.5L113.95,31.647L124.9,44.6L117.49,44.6L109.679,35.254L108.079,37.054L108.079,44.664L101.8,44.664L101.8,21.5Z" style="fill:rgb(0,123,198);fill-rule:nonzero;"/>
                    </g>
                </g>
                <g transform="matrix(1,0,0,1,91.913,17.757)">
                    <g transform="matrix(1,0,0,1,-138.231,-31.885)">
                        <path d="M146.977,51.712L145.041,51.712L142.571,48.174L141.5,48.174L141.5,51.712L139.7,51.712L139.7,42.9L143.171,42.9C145.24,42.9 146.171,44.1 146.171,45.57C146.247,46.696 145.52,47.73 144.435,48.04L146.977,51.712ZM141.503,46.972L142.903,46.972C144.038,46.972 144.438,46.372 144.438,45.637C144.438,44.837 144.038,44.237 142.903,44.237L141.503,44.237L141.503,46.972Z" style="fill:rgb(0,44,87);fill-rule:nonzero;"/>
                    </g>
                    <g transform="matrix(1,0,0,1,-143.949,-31.885)">
                        <path d="M156.9,51.712L156.9,42.9L162.641,42.9L162.641,44.3L158.7,44.3L158.7,46.369L161.9,46.369L161.9,47.769L158.7,47.769L158.7,50.31L162.639,50.31L162.639,51.71L156.9,51.712Z" style="fill:rgb(0,44,87);fill-rule:nonzero;"/>
                    </g>
                    <g transform="matrix(1,0,0,1,-148.67,-31.885)">
                        <path d="M178.176,51.712L177.308,49.512L173.708,49.512L172.84,51.712L171.1,51.712L174.838,42.9L176.238,42.9L179.976,51.712L178.176,51.712ZM175.506,45.103L174.171,48.303L176.771,48.303L175.506,45.103Z" style="fill:rgb(0,44,87);fill-rule:nonzero;"/>
                    </g>
                    <g transform="matrix(1,0,0,1,-155.119,-31.885)">
                        <path d="M190.5,51.712L190.5,42.9L192.3,42.9L192.3,50.31L196.239,50.31L196.239,51.71L190.5,51.712Z" style="fill:rgb(0,44,87);fill-rule:nonzero;"/>
                    </g>
                    <g transform="matrix(1,0,0,1,-158.875,-31.885)">
                        <path d="M206.607,44.3L206.607,51.71L204.807,51.71L204.807,44.3L201.807,44.3L201.807,42.9L209.551,42.9L209.551,44.3L206.607,44.3Z" style="fill:rgb(0,44,87);fill-rule:nonzero;"/>
                    </g>
                    <g transform="matrix(1,0,0,1,-164.294,-31.918)">
                        <path d="M223.374,48.274L223.374,51.812L221.574,51.812L221.574,48.274L218.1,43L220.036,43L222.436,46.805L224.836,43L226.705,43L223.374,48.274Z" style="fill:rgb(0,44,87);fill-rule:nonzero;"/>
                    </g>
                    <g transform="matrix(1,0,0,1,-137.5,-26.433)">
                        <path d="M142.24,35.713C142.201,35.714 142.162,35.715 142.122,35.715C139.595,35.715 137.514,33.634 137.514,31.107C137.514,28.579 139.595,26.499 142.122,26.499C142.162,26.499 142.201,26.499 142.24,26.5C143.326,26.482 144.394,26.784 145.311,27.368L145.311,28.968C144.512,28.282 143.493,27.903 142.44,27.9C142.402,27.898 142.363,27.898 142.325,27.898C140.7,27.898 139.364,29.234 139.364,30.859C139.364,30.919 139.365,30.978 139.369,31.038C139.364,31.11 139.361,31.182 139.361,31.254C139.361,32.859 140.682,34.18 142.287,34.18C142.338,34.18 142.389,34.179 142.44,34.176C143.495,34.185 144.518,33.805 145.311,33.108L145.311,34.844C144.395,35.428 143.327,35.73 142.24,35.713Z" style="fill:rgb(0,44,87);fill-rule:nonzero;"/>
                    </g>
                    <g transform="matrix(1,0,0,1,-141.988,-26.4)">
                        <path d="M155.807,35.746C155.761,35.747 155.716,35.748 155.67,35.748C153.106,35.748 150.995,33.638 150.995,31.073C150.995,28.508 153.106,26.398 155.67,26.398C155.716,26.398 155.761,26.399 155.807,26.4C155.861,26.398 155.915,26.397 155.969,26.397C158.481,26.397 160.548,28.464 160.548,30.976C160.548,31.008 160.548,31.041 160.547,31.073C160.549,31.133 160.551,31.193 160.551,31.253C160.551,33.721 158.519,35.753 156.051,35.753C155.969,35.753 155.888,35.75 155.807,35.746ZM155.807,27.869C154.189,27.872 152.86,29.203 152.86,30.821C152.86,30.904 152.863,30.987 152.87,31.069C152.861,31.164 152.856,31.259 152.856,31.354C152.856,32.955 154.173,34.272 155.774,34.272C157.375,34.272 158.692,32.955 158.692,31.354C158.692,31.259 158.687,31.164 158.678,31.069C158.688,30.969 158.694,30.869 158.694,30.769C158.694,29.183 157.393,27.876 155.807,27.869Z" style="fill:rgb(0,44,87);fill-rule:nonzero;"/>
                    </g>
                    <g transform="matrix(1,0,0,1,-147.639,-26.533)">
                        <path d="M175.944,35.612L175.944,30.2C175.944,30 176.011,29.4 176.011,29.332L175.677,30.2L173.34,35.607L172.205,35.607L169.869,30.2C169.802,30 169.602,29.466 169.535,29.332C169.535,29.399 169.602,29.932 169.602,30.2L169.602,35.607L168,35.607L168,26.8L169.936,26.8L172.873,33.275L175.744,26.8L177.613,26.8L177.613,35.612L175.944,35.612Z" style="fill:rgb(0,44,87);fill-rule:nonzero;"/>
                    </g>
                    <g transform="matrix(1,0,0,1,-153.456,-26.533)">
                        <path d="M193.444,35.612L193.444,30.2C193.444,30 193.511,29.4 193.511,29.332L193.177,30.2L190.84,35.607L189.705,35.607L187.369,30.2C187.302,30 187.102,29.466 187.035,29.332C187.035,29.399 187.102,29.932 187.102,30.2L187.102,35.607L185.502,35.607L185.502,26.8L187.438,26.8L190.375,33.275L193.246,26.8L195.115,26.8L195.115,35.612L193.444,35.612Z" style="fill:rgb(0,44,87);fill-rule:nonzero;"/>
                    </g>
                    <g transform="matrix(1,0,0,1,-159.307,-26.533)">
                        <path d="M203.1,35.612L203.1,26.8L208.841,26.8L208.841,28.2L204.9,28.2L204.9,30.269L208.1,30.269L208.1,31.669L204.9,31.669L204.9,34.21L208.839,34.21L208.839,35.61L203.1,35.612Z" style="fill:rgb(0,44,87);fill-rule:nonzero;"/>
                    </g>
                    <g transform="matrix(1,0,0,1,-163.097,-26.533)">
                        <path d="M221.843,35.612L219.907,35.612L217.437,32.074L216.3,32.074L216.3,35.612L214.5,35.612L214.5,26.8L217.971,26.8C220.04,26.8 220.971,28 220.971,29.47C221.047,30.596 220.32,31.63 219.235,31.94L221.843,35.612ZM216.369,30.872L217.769,30.872C218.904,30.872 219.304,30.272 219.304,29.537C219.304,28.737 218.904,28.137 217.769,28.137L216.369,28.137L216.369,30.872Z" style="fill:rgb(0,44,87);fill-rule:nonzero;"/>
                    </g>
                    <g transform="matrix(1,0,0,1,-167.252,-26.433)">
                        <path d="M231.74,35.713C231.701,35.714 231.662,35.715 231.622,35.715C229.095,35.715 227.014,33.634 227.014,31.107C227.014,28.579 229.095,26.499 231.622,26.499C231.662,26.499 231.701,26.499 231.74,26.5C232.826,26.482 233.894,26.784 234.811,27.368L234.811,28.968C234.012,28.282 232.993,27.903 231.94,27.9C231.902,27.898 231.863,27.898 231.825,27.898C230.2,27.898 228.864,29.234 228.864,30.859C228.864,30.919 228.865,30.978 228.869,31.038C228.864,31.11 228.861,31.182 228.861,31.254C228.861,32.859 230.182,34.18 231.787,34.18C231.838,34.18 231.889,34.179 231.94,34.176C232.995,34.185 234.018,33.805 234.811,33.108L234.811,34.844C233.899,35.437 232.828,35.74 231.74,35.713Z" style="fill:rgb(0,44,87);fill-rule:nonzero;"/>
                    </g>
                    <g transform="matrix(1,0,0,1,-172.039,-26.533)">
                        <rect x="241.4" y="26.8" width="1.8" height="8.812" style="fill:rgb(0,44,87);fill-rule:nonzero;"/>
                    </g>
                    <g transform="matrix(1,0,0,1,-173.602,-26.533)">
                        <path d="M253.176,35.612L252.308,33.412L248.708,33.412L247.84,35.612L246.1,35.612L249.838,26.8L251.238,26.8L254.976,35.612L253.176,35.612ZM250.506,29L249.171,32.2L251.771,32.2L250.506,29Z" style="fill:rgb(0,44,87);fill-rule:nonzero;"/>
                    </g>
                    <g transform="matrix(1,0,0,1,-178.688,-26.533)">
                        <path d="M261.4,35.612L261.4,26.8L263.2,26.8L263.2,34.21L267.139,34.21L267.139,35.61L261.4,35.612Z" style="fill:rgb(0,44,87);fill-rule:nonzero;"/>
                    </g>
                </g>
                <g transform="matrix(1,0,0,1,0.366,0.4)">
                    <g transform="matrix(1,0,0,1,-6.062,-0.533)">
                        <path d="M28.648,0.8L17.5,13.484L28.515,25.767L28.648,0.8Z" style="fill:rgb(0,44,87);fill-rule:nonzero;"/>
                    </g>
                    <g transform="matrix(1,0,0,1,-0.643,-13.132)">
                        <path d="M22.963,38.7L11.547,38.7L1.2,50.783L12.549,50.783L22.963,38.7Z" style="fill:rgb(0,123,198);fill-rule:nonzero;"/>
                    </g>
                    <g transform="matrix(1,0,0,1,-0.577,-0.5)">
                        <path d="M23.03,0.7L11.414,0.7L1,13.451L12.415,13.451L23.03,0.7Z" style="fill:rgb(0,123,198);fill-rule:nonzero;"/>
                    </g>
                    <g transform="matrix(1,0,0,1,-0.543,-6.849)">
                        <path d="M22.863,32.417L11.314,32.417L0.9,19.8L12.315,19.8L22.863,32.417Z" style="fill:rgb(0,123,198);fill-rule:nonzero;"/>
                    </g>
                    <g transform="matrix(1,0,0,1,-6.228,-12.999)">
                        <path d="M18,50.65L28.815,50.65L28.815,38.3L18,50.65Z" style="fill:rgb(0,44,87);fill-rule:nonzero;"/>
                    </g>
                    <g transform="matrix(1,0,0,1,-11.58,-6.816)">
                        <path d="M34.167,32.184L44.848,44.534L44.848,32.384L34.1,19.7L34.167,32.184Z" style="fill:rgb(0,123,198);fill-rule:nonzero;"/>
                    </g>
                    <g transform="matrix(1,0,0,1,33.401,25.568)">
                        <rect x="0" y="0" width="11.349" height="12.016" style="fill:rgb(0,44,87);"/>
                    </g>
                    <g transform="matrix(1,0,0,1,22.787,0.2)">
                        <g transform="matrix(1,0,0,1,-34.566,-0.7)">
                            <path d="M56.6,0.7L45.114,0.7L34.7,13.317L46.115,13.317L56.6,0.7Z" style="fill:rgb(0,44,87);fill-rule:nonzero;"/>
                        </g>
                        <g transform="matrix(1,0,0,1,-34.5,-7.049)">
                            <path d="M56.33,32.417L44.847,32.417L34.5,19.8L45.849,19.8L56.33,32.417Z" style="fill:rgb(0,44,87);fill-rule:nonzero;"/>
                        </g>
                    </g>
                    <g transform="matrix(1,0,0,1,-16.899,-13.099)">
                        <path d="M61.582,38.6L61.582,50.883L50.1,50.883L50.1,38.6" style="fill-rule:nonzero;"/>
                    </g>
                    <g transform="matrix(1,0,0,1,22.587,25.501)">
                        <path d="M0,0L10.614,12.283" style="fill:none;fill-rule:nonzero;"/>
                    </g>
                    <g transform="matrix(1,0,0,1,22.654,0)">
                        <g transform="matrix(1,0,0,1,0,12.884)">
                            <g transform="matrix(1,0,0,1,0,0.067)">
                                <path d="M0,0L10.614,12.617" style="fill:none;fill-rule:nonzero;"/>
                            </g>
                            <g transform="matrix(1,0,0,1,10.614,12.684)">
                                <path d="M0,0L11.415,0" style="fill:none;fill-rule:nonzero;"/>
                            </g>
                            <g transform="matrix(1,0,0,1,11.482,0)">
                                <path d="M0,0L10.614,12.617" style="fill:none;fill-rule:nonzero;"/>
                            </g>
                        </g>
                        <g transform="matrix(1,0,0,1,0.067,0)">
                            <g transform="matrix(1,0,0,1,0,12.884)">
                                <path d="M0,0L11.349,0" style="fill:none;fill-rule:nonzero;"/>
                            </g>
                            <g transform="matrix(1,0,0,1,0.067,0.067)">
                                <path d="M0,12.684L10.614,0" style="fill:none;fill-rule:nonzero;"/>
                            </g>
                            <g transform="matrix(1,0,0,1,10.681,0)">
                                <path d="M0,0L11.616,0" style="fill:none;fill-rule:nonzero;"/>
                            </g>
                            <g transform="matrix(1,0,0,1,11.482,0.134)">
                                <path d="M0,12.684L10.614,0" style="fill:none;fill-rule:nonzero;"/>
                            </g>
                        </g>
                    </g>
                    <g transform="matrix(1,0,0,1,0.223,12.884)">
                        <g transform="matrix(1,0,0,1,0,0.067)">
                            <path d="M0,0L10.681,12.617" style="fill:none;fill-rule:nonzero;"/>
                        </g>
                        <g transform="matrix(1,0,0,1,10.681,12.684)">
                            <path d="M0,0L11.482,0" style="fill:none;fill-rule:nonzero;"/>
                        </g>
                        <g transform="matrix(1,0,0,1,11.549,0)">
                            <path d="M0,0L10.681,12.617" style="fill:none;fill-rule:nonzero;"/>
                        </g>
                    </g>
                    <g transform="matrix(1,0,0,1,0.357,12.884)">
                        <path d="M0,0L11.415,0" style="fill:none;fill-rule:nonzero;"/>
                    </g>
                    <g transform="matrix(1,0,0,1,0.357,0.067)">
                        <path d="M0,12.684L10.681,0" style="fill:none;fill-rule:nonzero;"/>
                    </g>
                    <g transform="matrix(1,0,0,1,11.038,0)">
                        <path d="M0,0L11.616,0" style="fill:none;fill-rule:nonzero;"/>
                    </g>
                    <g transform="matrix(1,0,0,1,11.906,0.2)">
                        <path d="M0,12.617L10.614,0" style="fill:none;fill-rule:nonzero;"/>
                    </g>
                    <g transform="matrix(1,0,0,1,-0.51,-0.4)">
                        <path d="M11.414,25.968L0.8,38.185L23.03,38.185L23.03,0.4" style="fill-rule:nonzero;"/>
                    </g>
                    <g transform="matrix(1,0,0,1,11.772,25.568)">
                        <path d="M10.681,0L0,12.217" style="fill:none;fill-rule:nonzero;"/>
                    </g>
                    <g transform="matrix(0.707,-0.707,0.707,0.707,0,12.907)">
                        <rect x="0" y="0" width="0.467" height="0.467" style="fill:white;"/>
                    </g>
                </g>
            </g>
        </g>
    </g>
</svg>
